Coordinates
version=1
nRows=8
nColumns=40
inDegrees=yes

Units are S.I. units (second, meters, Newtons, ...)
Angles are in degrees.

endheader
time	pelvis_tilt	pelvis_list	pelvis_rotation	pelvis_tx	pelvis_ty	pelvis_tz	hip_flexion_r	hip_adduction_r	hip_rotation_r	knee_angle_r	knee_angle_r_beta	ankle_angle_r	subtalar_angle_r	mtp_angle_r	hip_flexion_l	hip_adduction_l	hip_rotation_l	knee_angle_l	knee_angle_l_beta	ankle_angle_l	subtalar_angle_l	mtp_angle_l	lumbar_extension	lumbar_bending	lumbar_rotation	arm_flex_r	arm_add_r	arm_rot_r	elbow_flex_r	pro_sup_r	wrist_flex_r	wrist_dev_r	arm_flex_l	arm_add_l	arm_rot_l	elbow_flex_l	pro_sup_l	wrist_flex_l	wrist_dev_l
     24.39864286	     -6.60018517	     -4.87714415	      5.36431345	      1.05795486	      0.92021586	      0.48541729	      4.85217856	      1.75002840	    -15.45039649	     13.09953766	     13.09953766	     16.28389617	      2.91581386	     -4.46981699	     32.59303564	     -8.39678169	     -1.76234473	     20.12680984	     20.12680984	      5.03533037	     -7.35417030	      7.44568196	     -9.86577037	      4.07177354	      2.33089929	     36.37096570	    -15.69667194	      7.05870309	     90.10444345	     44.48320017	      0.00000000	      0.00000000	     -2.58932028	     -9.62250599	    -14.67418757	     31.95345663	     46.76727604	      0.00000000	      0.00000000
     24.41228571	     -6.55653809	     -4.98219626	      5.12626802	      1.05946883	      0.91902720	      0.48399382	      4.51641729	      1.77973414	    -15.08912278	     13.51918498	     13.51918498	     17.15783581	      2.77526422	     -3.32674344	     32.03713200	     -8.57632530	     -2.56691902	     20.65135382	     20.65135382	      3.31840474	     -7.65163923	      2.93399440	     -9.65347886	      4.05412355	      1.94252526	     36.52270598	    -14.95535381	      8.65474994	     87.53237530	     44.55339885	      0.00000000	      0.00000000	     -2.73856126	     -9.79230120	    -14.63897597	     31.47381369	     46.73989647	      0.00000000	      0.00000000
     24.42592857	     -6.50003374	     -4.98916050	      4.88522732	      1.06109915	      0.91817593	      0.48239907	      4.02653575	      1.70476846	    -14.81729622	     13.65262522	     13.65262522	     17.52650697	      2.83535405	     -3.40790589	     31.50033520	     -8.56515431	     -2.88024510	     21.38355906	     21.38355906	      3.16009785	     -8.25159644	      2.81213934	     -9.58467693	      3.90163383	      2.08545751	     35.46801665	    -14.58985094	      9.02493909	     87.22555595	     44.54908147	      0.00000000	      0.00000000	     -2.69772405	     -9.95202907	    -14.67833632	     31.52360348	     46.74551616	      0.00000000	      0.00000000
     24.43957143	     -6.40730412	     -4.96494271	      4.70857756	      1.06289278	      0.91747906	      0.48052372	      3.50690705	      1.57179355	    -14.57975140	     13.83956335	     13.83956335	     17.85927984	      2.81202289	     -3.45719744	     30.98637582	     -8.49985392	     -3.07238048	     22.17167092	     22.17167092	      3.14178384	     -8.85632411	      2.62056162	     -9.53368830	      3.72378668	      2.15634617	     34.27439213	    -14.30511317	      9.42259957	     86.76011466	     44.54816648	      0.00000000	      0.00000000	     -2.59733317	    -10.09521370	    -14.70705301	     31.57471412	     46.75059211	      0.00000000	      0.00000000
     24.45321429	     -6.28598545	     -4.92236078	      4.55975540	      1.06475286	      0.91700726	      0.47844305	      2.99600188	      1.39196326	    -14.35673593	     14.10318643	     14.10318643	     18.10340956	      2.72944952	     -3.46248084	     30.50496559	     -8.39178156	     -3.07419235	     22.97038901	     22.97038901	      3.27904653	     -9.47971956	      2.37656355	     -9.51570882	      3.52043180	      2.21206095	     32.94345569	    -14.10002061	      9.85329791	     86.11954454	     44.55130577	      0.00000000	      0.00000000	     -2.46150736	    -10.25107446	    -14.73506367	     31.62720412	     46.75611298	      0.00000000	      0.00000000
     24.46685714	     -6.30036109	     -4.90536179	      4.43868115	      1.06636068	      0.91649438	      0.47605813	      2.85424440	      1.17242211	    -13.99469731	     14.76428937	     14.76428937	     18.44908115	      2.28840311	     -3.08115429	     30.26383437	     -8.15803065	     -2.57509960	     23.73391471	     23.73391471	      3.21464406	    -10.89090566	      2.03516808	     -9.28379282	      3.37114847	      2.50323000	     31.84725903	    -14.37473832	     10.61828179	     84.00789474	     44.60072048	      0.00000000	      0.00000000	     -2.05924885	    -10.33502012	    -14.75380259	     31.64663499	     46.75925909	      0.00000000	      0.00000000
     24.48050000	     -6.18506695	     -4.80121730	      4.37187500	      1.06809982	      0.91654890	      0.47340401	      2.53668023	      0.83087651	    -13.80158024	     15.38460885	     15.38460885	     18.67780589	      2.08759820	     -2.75693989	     29.82559316	     -7.86394598	     -2.23919046	     24.32234207	     24.32234207	      3.44105723	    -11.80591840	      1.93125117	     -9.25822477	      3.14926661	      2.39386468	     30.57549256	    -14.24627340	     11.35477838	     82.26134346	     44.63848180	      0.00000000	      0.00000000	     -1.82149152	    -10.48399326	    -14.79129620	     31.58966810	     46.76239571	      0.00000000	      0.00000000
     24.49414286	     -5.96902910	     -4.75907516	      4.39305133	      1.06997818	      0.91701836	      0.47046571	      2.04526538	      0.55365376	    -13.74177077	     15.86934179	     15.86934179	     18.66834744	      1.97788544	     -2.74053569	     29.31907587	     -7.65606267	     -2.01392280	     24.86831446	     24.86831446	      3.86748955	    -12.19251681	      1.77878195	     -9.36876175	      3.05720107	      2.18434893	     28.88696275	    -14.06872459	     11.80097498	     81.43477641	     44.64578536	      0.00000000	      0.00000000	     -1.65009792	    -10.63191508	    -14.81928281	     31.65443913	     46.76818922	      0.00000000	      0.00000000
